<?xml version="1.0" standalone="no"?>
<!DOCTYPE svg PUBLIC "-//W3C//DTD SVG 20010904//EN"
 "http://www.w3.org/TR/2001/REC-SVG-20010904/DTD/svg10.dtd">
<svg version="1.0" xmlns="http://www.w3.org/2000/svg"
 width="982.000000pt" height="1280.000000pt" viewBox="0 0 982.000000 1280.000000"
 preserveAspectRatio="xMidYMid meet">
<metadata>
Created by potrace 1.15, written by Peter Selinger 2001-2017
</metadata>
<g transform="translate(0.000000,1280.000000) scale(0.100000,-0.100000)"
fill="#000000" stroke="none">
<path d="M8144 12758 c-113 -68 -239 -166 -422 -331 -174 -157 -380 -327 -567
-469 -55 -42 -147 -117 -205 -168 -136 -119 -284 -241 -385 -316 -70 -51 -374
-287 -507 -392 -93 -74 -214 -161 -268 -192 -72 -42 -163 -106 -470 -330 -140
-103 -284 -204 -320 -225 -36 -22 -123 -77 -195 -123 -71 -47 -229 -146 -350
-220 -121 -74 -319 -199 -440 -277 -260 -168 -391 -246 -483 -287 -37 -16
-152 -72 -257 -123 -199 -98 -363 -170 -453 -200 -45 -14 -56 -23 -68 -51 -8
-18 -14 -43 -14 -54 0 -34 59 -26 148 20 42 22 112 49 154 59 42 10 115 39
161 64 46 24 110 52 141 62 31 10 87 36 124 59 37 23 99 54 137 71 73 30 234
132 272 172 12 13 29 23 38 23 27 0 108 46 168 95 70 56 164 115 377 234 91
51 190 112 220 135 30 24 66 49 80 56 14 7 50 33 81 57 30 23 59 43 63 43 4 0
33 17 64 39 31 21 75 47 97 59 22 11 92 57 155 102 63 44 137 94 165 110 27
16 78 53 112 83 35 30 98 73 141 96 42 23 106 64 142 91 36 28 92 69 125 92
33 22 101 73 150 113 111 88 165 125 232 158 28 15 60 39 71 55 11 15 55 46
98 67 55 29 90 55 123 94 25 30 65 66 88 80 22 14 126 103 230 196 103 94 205
184 226 200 21 17 40 39 43 50 6 22 27 39 189 149 61 42 142 104 182 138 182
160 389 346 403 363 20 24 205 175 239 196 29 17 60 94 44 110 -6 6 -36 -7
-79 -33z"/>
<path d="M8354 12649 c-62 -62 -131 -138 -151 -170 -22 -34 -45 -59 -55 -59
-52 0 -87 -40 -177 -197 -23 -40 -44 -73 -46 -73 -3 0 -4 23 -3 51 2 49 -11
73 -37 66 -5 -2 -33 -48 -62 -103 -28 -55 -70 -120 -93 -144 l-41 -45 6 66 c4
39 2 69 -3 73 -15 9 -74 -62 -117 -138 -21 -37 -53 -83 -72 -101 -51 -50 -179
-136 -218 -146 -44 -12 -114 -66 -140 -107 -16 -25 -27 -31 -54 -32 -28 0 -46
-13 -116 -80 -60 -59 -86 -79 -99 -74 -24 9 -108 -73 -196 -191 -88 -118 -97
-125 -110 -91 -8 22 -13 25 -28 17 -24 -13 -106 -102 -164 -179 -27 -34 -52
-62 -57 -62 -5 0 -12 11 -15 25 -4 14 -12 25 -19 25 -16 0 -80 -66 -183 -190
-70 -84 -79 -92 -82 -70 -2 14 -8 29 -13 35 -13 13 -91 -66 -145 -147 -25 -38
-52 -68 -60 -68 -21 0 -17 25 11 58 27 32 31 47 15 57 -15 9 -104 -79 -151
-151 -24 -35 -46 -64 -49 -64 -4 0 -12 11 -18 25 -24 53 -71 20 -135 -95 -42
-75 -106 -162 -125 -168 -9 -3 -12 6 -10 32 1 19 -1 38 -4 42 -10 10 -47 -23
-127 -113 -73 -83 -87 -93 -108 -72 -19 19 -38 4 -102 -80 -55 -72 -94 -111
-112 -111 -3 0 -11 12 -17 26 -20 43 -49 27 -125 -66 -74 -91 -95 -109 -101
-88 -16 52 -13 50 -45 33 -28 -14 -101 -98 -101 -116 0 -4 -36 -37 -80 -72
-139 -112 -312 -321 -406 -493 -51 -94 -69 -95 -36 -1 22 61 98 191 148 253
19 22 40 56 48 75 8 19 30 49 49 68 19 18 42 52 52 76 9 24 27 51 41 59 24 17
33 46 14 46 -26 0 -71 -33 -98 -73 -17 -23 -68 -79 -114 -123 -82 -80 -124
-104 -185 -104 -12 0 -37 -13 -55 -28 -58 -50 -82 -62 -119 -62 -40 0 -66 -18
-189 -129 l-70 -63 -11 31 c-6 17 -17 31 -25 31 -7 0 -44 -29 -81 -63 -105
-98 -187 -146 -168 -99 13 35 17 72 7 72 -5 0 -49 -35 -97 -77 -144 -127 -145
-128 -166 -114 -26 16 -69 -7 -129 -70 -36 -38 -69 -59 -140 -89 -145 -62
-166 -81 -112 -101 40 -16 116 1 361 81 167 55 227 79 280 114 36 24 102 58
146 76 91 36 143 64 199 109 21 17 48 31 60 31 12 0 70 25 129 55 58 30 109
55 112 55 12 0 3 -43 -39 -185 -24 -82 -51 -186 -60 -230 -19 -91 -51 -165
-72 -165 -8 0 -37 12 -65 26 -85 43 -189 64 -313 64 -135 0 -170 -9 -265 -69
-162 -102 -186 -129 -256 -284 l-39 -89 11 -131 c7 -80 17 -144 27 -161 18
-36 13 -46 -41 -85 -78 -57 -142 -164 -143 -238 0 -35 -7 -50 -36 -83 -19 -21
-45 -42 -57 -46 -35 -10 -85 -63 -148 -157 -43 -62 -77 -100 -121 -132 -64
-46 -111 -104 -143 -174 -10 -23 -22 -41 -26 -41 -12 0 -45 46 -70 96 -44 93
-173 149 -339 149 -83 0 -102 -3 -151 -28 -31 -15 -59 -27 -63 -27 -4 0 -19
-9 -33 -20 -35 -27 -50 -25 -67 8 -19 37 -92 109 -129 128 -41 22 -156 29
-225 14 -127 -27 -251 -119 -301 -224 -37 -77 -61 -173 -61 -247 0 -45 7 -69
35 -123 40 -75 39 -94 -6 -71 -58 31 -117 35 -197 14 -119 -30 -207 -78 -297
-162 -80 -74 -87 -84 -124 -167 -21 -48 -51 -182 -51 -226 0 -15 7 -50 15 -78
8 -28 21 -76 29 -106 8 -30 33 -84 56 -120 22 -36 52 -89 65 -118 42 -88 91
-153 186 -242 l90 -85 -25 -85 c-53 -178 -16 -381 82 -449 13 -9 43 -31 68
-48 24 -18 50 -33 57 -33 6 0 32 -16 56 -35 45 -36 95 -55 146 -55 76 -1 91
-22 125 -178 24 -117 54 -172 138 -256 104 -102 171 -147 244 -160 21 -4 42
-15 47 -25 6 -10 32 -22 64 -30 30 -6 63 -18 73 -26 18 -13 18 -14 0 -34 -11
-12 -26 -21 -34 -21 -28 0 -134 -64 -180 -109 -26 -25 -94 -102 -152 -171
-124 -147 -163 -186 -250 -248 -125 -88 -220 -167 -220 -183 0 -25 30 -45 87
-59 37 -8 53 -17 53 -28 0 -9 -23 -54 -51 -100 -73 -119 -75 -193 -4 -217 28
-10 125 -64 125 -70 0 -1 -25 -23 -55 -48 -30 -24 -74 -67 -97 -95 -24 -27
-81 -82 -128 -122 -47 -40 -112 -98 -145 -130 -56 -54 -135 -117 -211 -167
-62 -42 -136 -204 -151 -330 -4 -36 -2 -43 21 -59 31 -20 112 -15 161 10 17 8
48 18 71 22 l41 6 -13 -105 c-7 -58 -20 -129 -30 -159 -13 -41 -17 -97 -20
-258 -2 -236 -15 -343 -50 -452 -20 -61 -23 -81 -14 -97 23 -44 124 -18 208
53 24 20 50 36 58 36 23 0 153 68 221 115 33 24 94 62 135 86 40 23 91 57 113
75 22 18 64 41 92 52 29 11 67 32 84 46 17 15 37 25 43 23 7 -2 11 -30 11 -70
l0 -67 40 1 c61 1 123 14 200 44 97 37 284 102 317 109 22 5 36 -2 77 -36 27
-24 60 -50 73 -60 29 -19 118 -152 174 -257 52 -98 92 -141 132 -141 17 0 33
4 37 9 3 5 42 24 86 41 104 40 301 133 338 159 40 28 167 67 283 85 114 17
166 39 228 94 45 39 45 40 42 98 -1 33 3 79 10 103 l13 43 62 -6 c35 -4 69 -9
76 -12 10 -3 16 -33 20 -97 7 -101 47 -243 93 -328 31 -55 30 -66 -15 -189
-30 -82 -31 -91 -31 -250 0 -152 2 -169 23 -210 28 -57 105 -115 280 -212
l132 -73 165 0 165 0 90 45 c59 29 109 64 146 100 49 48 60 66 84 140 34 104
67 140 147 164 31 9 62 16 70 16 28 0 104 58 167 126 45 49 78 99 115 174 l51
105 3 133 4 133 -36 76 c-20 41 -36 80 -36 86 0 6 14 25 30 42 42 43 68 125
91 284 11 74 24 140 29 145 5 5 54 15 109 22 56 7 112 19 125 26 13 7 41 23
63 35 39 21 143 126 143 144 0 5 18 20 40 34 56 35 64 72 65 295 l0 185 -31
66 c-55 116 -213 259 -286 259 -26 0 -22 21 10 66 46 63 53 66 109 53 102 -25
199 -108 223 -193 7 -25 34 -71 64 -108 49 -60 114 -173 131 -228 4 -14 23
-47 41 -75 19 -27 34 -57 34 -65 0 -8 22 -52 48 -97 27 -45 63 -124 81 -175
50 -145 72 -182 108 -186 67 -7 113 84 134 262 17 148 40 280 48 289 15 15 57
-53 116 -183 95 -208 116 -268 151 -433 19 -88 39 -168 44 -178 15 -28 41 -38
68 -28 43 16 87 -18 196 -151 56 -69 109 -126 118 -128 26 -5 82 55 139 148
98 160 107 178 130 241 31 85 83 182 133 246 23 28 73 92 111 142 39 49 80 96
93 103 13 7 35 33 49 58 14 25 39 64 55 87 39 57 90 172 116 258 19 65 52 308
52 383 0 18 7 65 16 103 l16 71 25 -24 c14 -13 31 -37 39 -53 17 -42 62 -85
88 -85 39 0 56 22 66 85 11 77 33 141 75 218 18 34 37 80 40 102 4 22 14 63
22 90 24 81 28 361 9 554 -18 183 -32 253 -82 419 -35 117 -42 162 -24 162 6
0 32 -11 58 -25 80 -43 106 -31 136 62 23 70 73 160 99 178 81 57 264 -53 393
-236 63 -90 96 -119 134 -119 47 0 52 17 62 218 13 268 24 406 38 491 16 93 0
339 -30 451 -11 41 -20 97 -20 123 l0 48 58 -31 c32 -17 91 -55 131 -85 40
-30 80 -55 90 -55 51 0 78 81 54 166 -8 27 -18 72 -24 101 -5 29 -14 64 -19
78 -11 28 -6 45 12 45 5 0 28 -16 51 -35 23 -20 56 -37 76 -40 20 -3 50 -13
68 -22 30 -15 34 -14 58 1 30 20 64 88 65 128 0 43 -84 271 -129 351 -54 93
-123 185 -209 279 -38 40 -90 102 -117 137 -71 94 -356 373 -465 457 -52 40
-131 104 -175 144 -44 39 -132 103 -195 142 -382 236 -376 233 -543 273 -56
13 -165 47 -242 75 -213 78 -281 98 -369 111 -45 7 -87 17 -93 22 -18 14 -90
241 -107 339 -8 47 -25 109 -37 139 -31 79 -37 102 -60 229 -11 63 -28 147
-39 185 -10 39 -30 155 -45 259 -20 154 -23 196 -14 230 7 25 9 74 5 126 -4
52 -2 99 4 120 6 19 18 102 26 183 8 82 21 165 29 184 8 20 15 66 15 105 0 78
22 198 51 273 11 27 31 101 44 163 14 62 33 129 44 150 29 56 61 169 61 213 0
22 7 47 17 59 15 18 93 204 93 223 0 8 157 363 192 434 23 48 86 110 236 232
57 46 167 151 245 234 84 88 158 157 182 169 22 11 60 39 85 63 42 40 177 144
269 207 45 30 63 80 39 104 -8 8 -44 17 -81 21 l-67 6 15 23 c20 31 19 64 -1
64 -8 0 -67 -50 -130 -111z m-854 -893 c0 -32 -29 -65 -60 -67 -73 -6 -79 13
-17 59 52 38 77 41 77 8z m-99 -167 c-41 -72 -68 -105 -77 -96 -4 4 0 23 9 42
17 36 87 119 94 111 2 -2 -9 -28 -26 -57z m-101 28 c0 -2 -10 -12 -22 -23
l-23 -19 19 23 c18 21 26 27 26 19z m-21 -233 c-15 -52 -49 -124 -60 -124 -9
0 6 44 40 124 25 57 35 57 20 0z m-119 -54 c0 -5 -18 -67 -41 -137 -89 -283
-186 -644 -238 -893 -17 -80 -37 -167 -46 -194 -8 -27 -22 -92 -30 -145 -11
-64 -25 -112 -44 -146 -54 -97 -100 -170 -131 -210 -50 -62 -93 -155 -159
-345 -64 -184 -82 -259 -101 -425 -16 -144 -5 -131 -118 -128 -181 7 -253 19
-355 62 -53 22 -142 51 -199 65 -57 15 -110 34 -120 44 -9 9 -28 45 -41 79
-43 106 -121 204 -207 258 -22 14 -72 32 -112 40 -46 10 -79 23 -92 37 -18 19
-26 20 -110 15 -50 -4 -127 -15 -171 -26 -44 -10 -100 -22 -125 -25 -137 -19
-298 -186 -405 -418 l-40 -86 -108 -54 c-105 -51 -109 -52 -123 -34 -33 46 -6
82 52 71 26 -4 39 -2 45 6 11 18 -9 39 -38 39 -13 0 -26 6 -29 13 -2 7 9 65
25 128 64 247 223 511 326 541 22 7 60 29 85 49 25 21 71 47 103 59 55 21 91
42 307 185 52 35 120 79 150 99 121 79 247 169 280 200 19 19 68 52 108 75 40
23 129 85 198 137 69 52 129 94 134 94 4 0 39 24 76 53 38 30 125 89 193 133
69 43 150 102 180 130 75 68 177 139 290 204 51 29 121 78 155 108 33 30 106
89 161 130 55 41 125 97 156 123 52 45 134 99 152 99 4 0 7 -4 7 -10z m-210
-1211 c-25 -120 -48 -179 -60 -158 -5 7 -7 23 -5 34 36 169 67 299 73 309 16
26 12 -94 -8 -185z m-74 -442 c-2 -243 6 -220 -109 -346 -77 -85 -108 -149
-159 -327 -56 -194 -78 -201 -78 -26 0 46 7 113 15 150 9 37 20 87 25 111 14
56 140 319 183 379 41 59 94 171 103 220 6 36 12 52 18 52 2 0 3 -96 2 -213z
m-6 -361 c0 -40 -12 -52 -30 -31 -10 12 -10 21 -2 40 16 36 32 31 32 -9z
m-2070 -114 c0 -12 -62 -67 -170 -154 -112 -90 -135 -114 -144 -150 -6 -24
-40 -47 -53 -35 -9 10 51 109 96 159 86 96 271 219 271 180z m330 -11 c40 -11
80 -27 89 -36 15 -15 14 -18 -11 -36 -34 -25 -36 -58 -7 -137 12 -31 28 -84
37 -118 13 -52 13 -64 1 -89 -8 -16 -19 -30 -25 -32 -14 -5 -43 106 -51 193
-3 34 -9 67 -13 74 -11 18 -56 -5 -76 -39 -10 -17 -22 -31 -27 -31 -13 0 -35
61 -47 133 -7 37 -16 70 -21 73 -10 6 -12 48 -2 57 12 13 79 7 153 -12z m1669
-48 c18 -43 101 -371 136 -538 10 -44 32 -121 50 -170 18 -50 45 -137 59 -194
15 -57 36 -121 47 -142 24 -47 24 -49 -1 -49 -48 0 -90 33 -205 160 -167 185
-198 230 -200 294 -1 29 -8 69 -15 91 -22 65 -7 247 28 353 16 48 35 110 42
137 23 90 39 106 59 58z m-1440 -116 c52 -70 83 -131 79 -158 -5 -37 -26 -33
-43 7 -9 21 -26 52 -39 68 -26 34 -60 98 -71 134 -6 22 -5 23 14 13 11 -7 38
-35 60 -64z m-1438 -329 c7 -35 13 -95 13 -133 -1 -108 -30 -143 -74 -88 -18
23 -20 35 -15 82 4 31 15 78 26 104 11 27 19 58 19 70 -6 64 14 41 31 -35z
m1952 -14 c68 -34 80 -45 133 -125 68 -103 95 -169 101 -252 11 -139 -35 -260
-152 -402 -36 -44 -68 -92 -72 -107 -7 -33 -15 -35 -52 -7 -27 19 -34 20 -122
10 -52 -5 -128 -13 -169 -16 l-75 -5 48 25 c27 15 76 31 109 37 38 7 76 22
107 44 27 18 64 39 82 47 53 23 86 66 116 152 25 72 32 82 68 101 45 23 64 61
64 132 1 81 -42 142 -99 142 -23 0 -31 10 -60 70 -18 39 -50 92 -71 118 -22
26 -39 50 -39 54 0 15 31 8 83 -18z m-906 -31 c25 -61 46 -64 77 -13 18 32 36
39 36 16 0 -7 -25 -51 -55 -97 -59 -91 -62 -99 -41 -132 22 -35 26 -93 17
-233 -8 -110 -13 -138 -35 -180 -14 -27 -35 -71 -47 -97 -12 -27 -42 -70 -68
-98 -43 -46 -51 -50 -109 -58 -34 -4 -65 -4 -68 0 -5 9 37 37 124 84 30 16 63
42 74 57 22 31 45 145 55 275 l6 84 -34 35 c-52 55 -67 60 -95 33 -20 -18 -24
-32 -24 -78 0 -96 -74 -219 -178 -294 -96 -71 -110 -39 -24 56 90 100 158 250
122 272 -18 11 -50 -16 -74 -63 -13 -26 -40 -62 -60 -81 -34 -33 -35 -34 -61
-17 -59 39 -145 137 -156 179 -14 53 -5 108 21 127 12 8 43 32 70 52 l49 37
47 -52 c26 -29 57 -68 70 -88 27 -43 59 -54 113 -39 41 11 138 78 180 124 l25
26 -22 75 c-27 90 -27 101 -4 114 33 20 52 12 69 -26z m-470 -17 c12 -12 -13
-22 -140 -56 -67 -17 -137 -41 -155 -52 -43 -26 -90 -96 -118 -177 -29 -81
-30 -130 -5 -229 11 -43 23 -102 27 -132 l7 -55 -23 20 c-31 28 -46 60 -60
130 -7 33 -25 96 -41 139 -38 105 -38 130 1 146 18 8 36 26 44 44 35 83 173
187 295 222 47 14 155 14 168 0z m-885 -105 c15 -6 40 -28 55 -49 16 -22 52
-57 81 -78 44 -32 60 -53 98 -129 42 -82 45 -94 39 -140 -8 -61 -53 -242 -66
-268 -10 -18 -77 -53 -86 -44 -2 3 11 29 29 58 31 51 33 60 36 160 4 129 -10
211 -45 261 -45 66 -52 46 -42 -109 5 -64 -9 -69 -32 -12 -21 55 -42 70 -66
47 -13 -14 -18 -44 -23 -142 -3 -69 -10 -130 -15 -135 -26 -26 -128 -71 -146
-66 -22 7 -79 80 -79 102 0 9 14 13 48 13 26 0 54 5 62 10 16 11 16 11 -79 88
-48 39 -76 89 -85 154 -7 44 -5 49 29 87 20 22 45 43 56 46 10 4 46 -4 78 -16
66 -23 91 -21 91 11 0 52 -126 78 -220 45 -23 -8 -49 -15 -56 -15 -48 0 41 66
136 100 30 12 68 27 83 34 29 14 63 10 119 -13z m2056 -10 c61 -16 83 -28 144
-80 40 -34 80 -61 89 -61 38 0 48 -11 42 -43 -10 -53 -42 -127 -76 -176 -17
-25 -46 -73 -63 -106 -41 -79 -56 -81 -82 -8 -29 79 -40 91 -102 116 -45 18
-57 30 -77 67 -28 55 -76 100 -105 100 -19 0 -20 4 -15 45 13 95 74 165 142
165 17 0 63 -9 103 -19z m-2598 -85 c0 -8 -4 -17 -9 -21 -5 -3 -13 -20 -16
-38 -4 -17 -22 -63 -40 -102 -57 -121 -67 -295 -21 -383 24 -46 95 -103 120
-96 38 11 66 34 72 58 l6 25 51 -33 c86 -55 113 -61 209 -48 83 11 208 6 208
-9 0 -9 -55 -29 -160 -58 -90 -25 -181 -27 -241 -5 -24 9 -82 20 -129 24 -126
12 -160 29 -205 103 -52 87 -69 161 -62 272 8 139 47 224 136 291 46 36 81 44
81 20z m2140 -22 c0 -8 -7 -25 -15 -37 -8 -13 -21 -75 -30 -140 -8 -64 -20
-128 -25 -142 -8 -20 -5 -35 11 -66 22 -43 19 -60 -6 -39 -34 28 -44 134 -25
277 13 96 28 144 47 160 18 14 43 6 43 -13z m1101 -115 l52 -50 -6 -55 c-8
-75 -34 -119 -72 -119 -22 0 -30 6 -36 25 -4 14 -15 51 -24 83 -16 53 -15 133
2 160 10 17 35 4 84 -44z m530 -156 c55 -58 78 -93 73 -108 -3 -7 -26 -16 -52
-20 -26 -3 -55 -8 -64 -11 -16 -5 -18 2 -18 48 0 63 10 128 19 128 4 0 23 -17
42 -37z m-2404 -89 c-9 -9 -28 6 -21 18 4 6 10 6 17 -1 6 -6 8 -13 4 -17z
m-182 -52 c49 -63 134 -122 175 -122 35 0 39 -14 9 -31 -35 -18 -115 -6 -145
22 -41 38 -104 139 -104 166 0 35 18 25 65 -35z m1293 12 c95 -30 118 -45 109
-68 -6 -14 -14 -16 -39 -11 -57 13 -158 73 -158 96 0 12 -2 13 88 -17z m-1116
-56 c-7 -7 -12 -8 -12 -2 0 14 12 26 19 19 2 -3 -1 -11 -7 -17z m870 -90 c102
-50 115 -73 37 -66 -40 4 -57 12 -85 39 -38 36 -60 69 -47 69 4 0 47 -19 95
-42z m2116 10 c7 -7 12 -23 12 -37 l-1 -26 -19 24 c-31 36 -23 70 8 39z m172
-60 c29 -20 36 -34 51 -94 10 -40 43 -133 73 -208 31 -75 56 -145 56 -156 0
-35 -64 -24 -81 14 -5 11 -24 42 -43 68 -61 85 -149 339 -133 382 9 22 38 20
77 -6z m-533 -8 c52 -23 125 -95 151 -147 10 -21 29 -74 42 -118 l23 -79 -43
-38 c-29 -26 -52 -38 -72 -38 -19 0 -43 -11 -65 -30 -18 -16 -40 -30 -48 -30
-24 0 -73 50 -86 87 -14 42 -7 203 10 247 15 36 30 25 71 -53 68 -127 107
-144 97 -42 -11 102 -61 182 -139 222 -21 11 -38 24 -38 29 0 16 52 11 97 -10z
m-4231 -35 c9 -23 -42 -120 -82 -154 -59 -52 -66 -43 -33 44 34 90 99 152 115
110z m5044 -42 c127 -42 342 -145 465 -223 50 -31 110 -69 135 -84 122 -74
162 -103 250 -179 52 -45 137 -116 190 -158 225 -179 647 -666 731 -844 33
-69 40 -151 13 -162 -8 -3 -50 7 -92 21 -96 34 -143 41 -183 27 -26 -9 -36 -8
-59 9 -49 35 -50 -15 -3 -98 34 -60 83 -183 83 -209 0 -21 -4 -20 -92 22 -102
50 -142 55 -183 23 -27 -21 -28 -23 -22 -102 4 -45 20 -145 37 -224 44 -207
39 -320 -25 -666 -22 -120 -55 -158 -100 -116 -23 21 -24 25 -9 41 14 15 14
20 0 50 -9 19 -34 57 -56 84 -22 28 -43 65 -46 83 -13 69 -48 45 -39 -28 3
-24 15 -64 26 -88 12 -23 18 -46 15 -50 -4 -3 -33 8 -65 26 -59 32 -201 72
-258 72 -45 0 -66 -25 -93 -106 -13 -38 -27 -75 -33 -81 -5 -8 -33 -13 -66
-13 -67 -1 -115 -17 -166 -55 l-38 -29 -27 32 c-31 37 -41 39 -64 13 -14 -15
-15 -23 -5 -45 17 -36 6 -42 -48 -28 -69 19 -310 140 -343 173 -32 33 -52 36
-71 13 -10 -13 -25 -15 -67 -11 -29 3 -60 11 -68 18 -21 17 -42 101 -52 206
-9 92 -21 123 -48 123 -33 0 -36 -48 -19 -262 l5 -58 -30 0 c-33 0 -60 23 -86
72 -18 34 -33 196 -34 364 0 90 -15 119 -47 93 -14 -13 -15 -37 -10 -234 7
-230 4 -265 -19 -265 -36 0 -64 149 -74 404 -9 221 -12 235 -47 236 -10 0 -13
-33 -14 -127 -1 -148 -10 -233 -24 -236 -22 -5 -29 116 -16 307 11 181 22 260
35 273 11 11 57 -40 200 -222 174 -222 240 -289 336 -345 41 -24 105 -60 141
-81 71 -43 89 -47 89 -24 0 20 -44 65 -63 65 -8 0 -20 7 -27 15 -7 9 -49 34
-93 57 -50 26 -100 62 -134 97 -61 63 -151 179 -177 228 -16 32 -16 33 8 39
34 8 38 25 21 97 -12 50 -12 91 -4 222 12 204 23 275 59 405 33 118 40 163 25
169 -16 7 -63 -98 -89 -199 -39 -153 -59 -312 -60 -475 -1 -82 3 -163 7 -180
8 -30 8 -29 -38 15 -66 63 -68 71 -56 148 6 37 15 110 21 162 6 52 20 124 30
158 11 35 18 68 15 73 -3 4 12 62 34 127 57 168 67 238 47 332 -9 41 -29 101
-46 132 -25 50 -29 64 -23 105 l6 48 -25 -29 -25 -29 -44 48 c-24 26 -45 51
-47 55 -2 6 204 100 220 100 3 0 26 -26 51 -58 48 -62 62 -99 72 -202 3 -36
17 -99 30 -140 30 -93 68 -244 94 -372 23 -113 72 -254 110 -316 31 -50 95
-85 150 -80 46 4 49 30 4 39 -57 11 -84 37 -120 116 -44 96 -82 263 -92 411
-8 116 -9 118 -43 152 -23 23 -41 55 -52 92 -17 59 -22 153 -8 162 4 3 60 -21
124 -53 64 -32 140 -64 170 -71 46 -11 227 -105 340 -176 39 -25 80 -94 112
-187 34 -100 160 -590 212 -819 56 -253 80 -317 144 -386 72 -79 88 -44 32 71
-82 166 -81 162 -143 465 -50 246 -137 589 -179 704 -17 47 -47 112 -66 143
-19 32 -34 59 -34 61 0 19 172 -20 225 -51 61 -36 307 -262 425 -390 124 -135
155 -162 164 -140 9 26 -8 56 -85 144 -74 85 -114 123 -308 304 -111 103 -169
137 -298 177 -37 12 -108 42 -158 66 -58 29 -110 47 -145 51 -57 6 -84 19 -74
34 3 5 40 9 84 9 75 0 80 -2 120 -35 23 -19 46 -35 50 -35 4 0 17 16 29 35 13
22 28 35 41 35 20 0 74 -26 111 -52 14 -9 21 -8 35 7 16 16 30 17 114 12 116
-7 146 -17 232 -77 37 -26 89 -53 114 -59 26 -7 58 -21 72 -32 39 -30 45 -24
39 34 -7 62 -62 197 -88 215 -11 7 -19 18 -19 25 0 16 -61 77 -78 77 -17 0
-12 -16 44 -136 24 -53 44 -100 44 -105 0 -14 -30 -4 -125 42 -67 32 -102 42
-213 58 -84 12 -140 25 -151 35 -10 9 -25 42 -35 73 -10 32 -36 99 -58 148
-22 50 -50 117 -63 150 -58 152 -144 315 -166 315 -32 0 18 -153 112 -342 27
-54 60 -136 74 -183 13 -47 29 -94 35 -104 22 -42 14 -51 -48 -51 -71 0 -87
11 -141 93 -39 60 -51 97 -33 97 5 0 16 6 25 13 17 11 17 17 2 87 -12 59 -23
82 -49 110 -39 40 -81 121 -121 234 -16 43 -39 94 -52 113 -12 18 -26 45 -29
58 -3 14 -10 25 -15 25 -18 0 -8 -52 46 -225 31 -98 54 -180 52 -182 -6 -5
-88 25 -113 42 -12 8 -25 28 -29 46 -4 17 -15 50 -25 73 -28 61 -109 320 -104
328 7 11 54 0 174 -39z m-3596 16 c26 -11 61 -33 79 -48 18 -15 44 -35 59 -44
52 -32 76 -117 36 -125 -11 -2 -27 15 -50 55 -23 38 -44 61 -62 68 -32 11 -59
-2 -64 -31 -2 -10 -7 -23 -12 -27 -11 -13 -47 52 -55 100 -4 24 -11 45 -16 49
-5 3 -9 9 -9 15 0 15 45 10 94 -12z m-1346 -68 c38 -35 40 -47 10 -55 -41 -10
-98 -7 -98 7 0 16 38 77 48 77 4 0 22 -13 40 -29z m3400 -31 c34 -23 93 -75
131 -116 91 -98 110 -151 92 -264 -17 -108 -103 -277 -174 -342 -51 -47 -87
-61 -87 -35 0 7 24 37 54 66 29 29 64 74 77 99 27 56 37 153 19 206 -13 41
-49 70 -74 60 -18 -7 -22 -21 -31 -107 -13 -113 -94 -217 -170 -217 -43 0 -47
15 -23 81 43 117 58 173 52 193 -14 44 -79 133 -141 192 l-64 61 65 60 c63 58
141 99 192 102 12 0 49 -17 82 -39z m-558 -3 c0 -7 -5 -18 -12 -25 -15 -15
-38 -16 -38 -1 0 12 29 38 43 39 4 0 7 -6 7 -13z m-2165 -37 c3 -6 -1 -13 -10
-16 -19 -8 -30 0 -20 15 8 14 22 14 30 1z m511 -31 c44 -36 84 -220 67 -309
-8 -43 -98 -135 -163 -167 -69 -33 -162 -50 -196 -34 l-27 12 20 20 c11 11 39
23 62 26 54 7 79 43 117 166 27 90 29 151 8 271 l-7 39 51 -5 c28 -3 59 -11
68 -19z m-469 -45 c3 -8 -13 -54 -35 -102 -23 -48 -44 -108 -48 -134 -12 -88
-53 -90 -78 -5 -29 100 -13 206 32 207 9 1 37 12 62 25 54 29 59 30 67 9z
m3933 -105 c22 -34 37 -65 34 -70 -9 -15 -72 -10 -88 7 -9 8 -16 26 -16 38 0
39 12 86 21 86 5 0 27 -28 49 -61z m-2396 32 c9 -13 -20 -111 -38 -129 -14
-15 -18 -14 -43 4 -15 11 -29 26 -31 33 -4 13 81 101 98 101 5 0 11 -4 14 -9z
m-1996 -95 c58 -77 76 -145 77 -281 0 -96 -4 -126 -17 -152 -16 -28 -57 -67
-64 -60 -2 1 6 36 17 77 32 116 16 340 -23 340 -4 0 -8 12 -8 28 -1 15 -7 38
-15 52 -32 56 -11 53 33 -4z m2601 -243 c11 -51 21 -112 21 -136 0 -35 6 -49
31 -73 32 -30 65 -84 52 -84 -5 0 -52 35 -107 77 l-99 78 37 8 c43 11 45 24
16 93 -45 104 -45 198 -1 279 l16 30 6 -90 c4 -49 16 -132 28 -182z m-2954
132 c88 -88 109 -125 102 -171 -8 -51 -62 -156 -102 -199 -42 -46 -44 -67 -10
-101 35 -35 25 -61 -32 -86 -51 -23 -118 -27 -151 -9 -25 13 -82 87 -82 106 0
14 52 25 118 25 57 0 78 13 92 55 10 31 16 35 46 35 31 0 34 2 34 31 0 18 -10
52 -22 76 -20 40 -44 66 -130 147 -16 14 -28 36 -28 49 0 30 -23 41 -53 26
-32 -17 -97 -80 -113 -111 -24 -47 -37 -34 -31 28 9 85 23 100 101 107 69 7
156 38 156 56 0 28 38 5 105 -64z m1910 27 c71 -35 159 -109 193 -162 31 -48
35 -63 36 -120 1 -61 -1 -65 -22 -68 -34 -5 -67 21 -108 86 -20 31 -81 103
-135 158 -55 56 -99 107 -99 112 0 25 82 21 135 -6z m2994 8 c30 -11 65 -29
78 -42 18 -17 26 -19 35 -10 20 20 60 13 115 -18 63 -36 80 -63 63 -96 -18
-33 -7 -83 37 -169 46 -92 41 -101 -43 -86 -82 15 -104 42 -150 186 -40 124
-54 152 -72 141 -17 -10 -15 -41 13 -164 14 -61 25 -113 25 -116 0 -10 -38 -6
-65 6 -14 6 -38 32 -53 57 -36 58 -88 184 -96 234 -4 23 -12 37 -19 34 -20 -6
-19 -89 3 -192 11 -54 18 -100 15 -103 -21 -21 -126 204 -133 285 -4 51 -4 52
24 58 16 4 34 8 39 10 33 11 137 3 184 -15z m-4625 -6 c9 -24 7 -100 -4 -128
-11 -30 -67 -63 -82 -48 -6 6 -13 42 -16 81 l-5 71 44 20 c53 24 55 24 63 4z
m1342 -94 c-19 -80 -42 -132 -81 -179 -63 -74 -74 -13 -16 93 21 39 41 83 44
97 4 14 16 38 28 53 34 44 44 19 25 -64z m958 47 c17 -36 17 -40 2 -55 -14
-15 -18 -15 -51 1 -34 16 -39 25 -35 57 2 20 31 41 50 38 8 -2 23 -20 34 -41z
m-4243 2 c11 -5 33 -28 49 -51 57 -79 30 -140 -68 -153 -109 -15 -127 -20
-127 -39 0 -10 18 -30 40 -45 42 -29 66 -74 49 -91 -15 -15 -76 29 -96 70 -12
22 -18 58 -18 98 0 87 -10 102 -65 102 -41 0 -45 2 -45 23 0 36 52 74 120 88
55 11 139 10 161 -2z m6268 -102 c6 -8 14 -29 17 -48 l6 -34 -26 28 c-14 15
-26 37 -26 48 0 22 13 25 29 6z m-5793 -28 c42 -20 71 -44 90 -70 14 -21 30
-39 35 -39 11 0 38 -88 45 -151 8 -67 5 -69 -95 -88 -72 -14 -81 -9 -81 45 0
41 -39 76 -92 83 -37 5 -43 10 -52 39 -10 36 -17 39 -52 16 -32 -22 -38 -14
-25 31 20 72 105 165 151 165 8 0 42 -14 76 -31z m652 -41 c5 -7 13 -35 17
-63 4 -27 11 -58 17 -68 13 -25 -2 -41 -52 -56 -22 -6 -45 -21 -51 -33 -35
-65 40 -345 114 -426 16 -17 18 -25 9 -34 -16 -16 -55 22 -117 112 -65 94 -86
162 -92 292 -5 97 -3 111 17 154 24 48 98 134 117 134 6 0 15 -6 21 -12z
m4496 -27 c3 -5 -11 -11 -31 -14 -43 -7 -123 2 -123 14 0 12 147 12 154 0z
m-1289 -76 c41 -17 137 -104 166 -151 24 -39 22 -87 -3 -92 -11 -2 -26 13 -44
45 -37 66 -80 109 -141 144 -60 34 -71 48 -52 60 20 12 35 11 74 -6z m-2176
-90 c-11 -55 -26 -95 -36 -102 -17 -13 -53 -18 -53 -8 0 11 101 207 105 203 2
-2 -5 -44 -16 -93z m3603 59 c46 -24 148 -107 181 -149 16 -20 40 -61 55 -93
25 -53 27 -66 27 -197 0 -126 -2 -145 -23 -187 -26 -51 -87 -126 -96 -118 -10
10 15 143 45 238 63 199 14 343 -61 178 -32 -71 -56 -96 -102 -105 -25 -5 -38
-17 -56 -48 -13 -23 -36 -56 -52 -74 -25 -25 -35 -30 -58 -25 -15 4 -47 9 -72
12 -114 13 -120 23 -83 125 l27 72 -26 20 -25 19 46 47 c25 26 65 55 89 66 39
17 49 17 108 6 74 -15 89 -9 78 33 -9 37 -25 43 -139 49 -138 7 -149 12 -90
49 31 19 45 35 43 46 -4 21 -23 19 -138 -14 -100 -29 -123 -30 -118 -7 4 19
108 60 187 73 80 13 213 4 253 -16z m-1526 -63 c41 -25 74 -69 119 -160 53
-105 58 -127 38 -168 -21 -45 -72 -79 -157 -105 -67 -20 -70 -20 -83 -3 -9 13
-13 52 -13 125 0 87 -5 120 -25 180 -14 40 -25 81 -25 91 0 22 22 40 63 49 48
12 49 12 83 -9z m-996 -33 c11 -18 20 -36 20 -40 0 -11 -118 -10 -124 1 -8 12
48 71 68 71 9 0 25 -15 36 -32z m716 1 c11 -22 14 -43 9 -68 -7 -37 -71 -165
-104 -207 l-18 -23 -11 24 c-21 46 -25 94 -10 118 8 12 23 45 33 72 19 53 60
115 75 115 5 0 17 -14 26 -31z m1139 -39 c0 -11 -15 -16 -65 -18 -70 -3 -110
3 -110 17 0 13 35 19 110 17 51 -1 65 -4 65 -16z m-2485 -69 c0 -36 -18 -51
-46 -41 -35 13 -40 31 -14 52 35 28 60 24 60 -11z m-2694 -68 c8 -66 -5 -86
-37 -57 -26 24 -49 67 -49 93 0 12 11 27 28 35 24 13 28 13 39 -1 6 -8 15 -40
19 -70z m3273 14 c25 -7 46 -17 48 -24 2 -6 -23 -30 -56 -52 -33 -23 -94 -71
-135 -107 -84 -74 -87 -74 -154 -16 l-43 37 55 62 c92 101 173 129 285 100z
m-2576 -16 c7 -7 8 -20 1 -38 -10 -30 -101 -83 -142 -83 -21 0 -23 3 -17 33 9
38 33 89 49 100 15 11 95 2 109 -12z m1744 -2 c90 -12 174 -49 261 -114 69
-52 98 -107 138 -263 21 -79 25 -111 20 -175 -13 -184 -90 -344 -191 -399 -57
-31 -256 -88 -306 -88 -47 0 -196 37 -245 60 -42 21 -94 93 -75 104 5 4 38
-12 72 -34 60 -39 65 -40 143 -39 45 0 122 6 171 13 60 9 99 10 118 3 19 -6
37 -5 57 3 42 17 117 101 145 163 22 46 25 66 25 177 0 137 -18 232 -50 264
-18 19 -20 18 -93 -47 -60 -54 -80 -81 -108 -139 l-34 -73 -5 102 c-6 116 -17
140 -51 106 -17 -17 -23 -40 -29 -107 -10 -100 -32 -176 -61 -202 -28 -25 -36
-9 -45 89 -6 68 -11 83 -42 124 l-35 46 2 101 c1 55 8 112 14 126 22 46 152
92 172 60 9 -15 61 -12 74 4 15 17 -1 27 -87 57 -100 35 -124 80 -45 88 6 0
47 -4 90 -10z m2558 -10 c63 -16 78 -37 86 -126 4 -42 12 -80 18 -86 30 -30
-2 -58 -94 -82 -51 -13 -61 -13 -74 -1 -11 12 -12 23 -2 60 15 62 14 140 -4
183 -28 66 -17 74 70 52z m-5163 -16 c20 -18 24 -43 7 -43 -15 0 -69 39 -69
51 0 15 42 10 62 -8z m5402 -30 c-15 -24 -34 -28 -34 -6 0 26 21 46 34 33 7
-7 7 -16 0 -27z m-5075 -15 c45 -99 186 -222 284 -249 54 -14 36 -32 -28 -27
-74 6 -162 53 -200 105 -16 22 -40 47 -52 54 -40 22 -79 129 -56 152 16 16 33
4 52 -35z m3502 -98 c22 -12 25 -38 5 -46 -22 -8 -56 14 -56 36 0 22 20 26 51
10z m-3658 -33 c66 -39 91 -78 95 -153 5 -80 -15 -147 -76 -254 -47 -82 -50
-85 -88 -88 -23 -1 -54 5 -74 15 -34 18 -80 74 -80 99 0 7 21 36 46 65 25 28
43 53 40 56 -2 3 -37 0 -77 -7 -93 -16 -103 -6 -96 90 5 75 24 119 76 173 l36
39 76 -4 c60 -4 86 -10 122 -31z m4497 -4 c0 -25 -30 -53 -57 -53 -29 0 -29
10 2 44 27 29 55 34 55 9z m-5368 -44 c-8 -59 -101 -291 -114 -283 -16 10 -7
71 26 166 36 107 61 151 79 145 7 -2 10 -15 9 -28z m4363 -8 c7 -12 -12 -24
-25 -16 -11 7 -4 25 10 25 5 0 11 -4 15 -9z m133 -35 c15 -8 41 -29 58 -48 66
-70 80 -113 46 -134 -26 -17 -72 -117 -72 -158 0 -19 -9 -59 -20 -88 -21 -57
-73 -128 -85 -116 -4 4 -9 29 -12 55 -9 102 -23 123 -81 123 -59 -1 -116 -33
-159 -89 -21 -27 -44 -49 -52 -48 -8 1 -25 27 -37 57 -38 95 -78 93 -78 -4 0
-43 5 -61 28 -90 33 -43 27 -60 -9 -26 -62 59 -72 199 -21 304 37 76 125 161
194 187 83 31 111 28 179 -13 104 -64 129 -49 68 41 -19 29 -35 55 -35 57 0
10 64 3 88 -10z m-4197 -52 c10 -13 24 -15 61 -11 26 4 48 3 48 -2 0 -4 -11
-40 -25 -79 -14 -39 -25 -84 -25 -98 0 -35 64 -223 101 -295 15 -31 25 -59 22
-63 -11 -11 -53 -7 -81 8 -51 27 -71 59 -98 161 -53 201 -56 218 -50 285 10
108 19 127 47 94z m5791 -15 c20 -11 16 -29 -8 -29 -7 0 -53 -18 -101 -39 -49
-21 -106 -45 -128 -52 -24 -9 -70 -43 -117 -88 -89 -84 -104 -75 -40 25 99
153 287 240 394 183z m-4481 -40 c32 -16 21 -29 -23 -29 -24 0 -70 -7 -103
-15 -83 -20 -144 -19 -152 1 -9 23 15 34 77 34 30 0 66 7 80 15 26 16 86 13
121 -6z m4586 -84 c36 -25 144 -164 166 -214 27 -62 35 -181 13 -203 -16 -16
-97 -38 -141 -38 -29 0 -45 26 -45 75 0 43 -48 170 -92 245 -25 42 -40 56 -62
60 -49 8 -40 26 31 58 78 35 100 38 130 17z m-4957 -22 c0 -3 -24 -31 -53 -62
-36 -37 -61 -76 -75 -114 -30 -78 -55 -231 -48 -282 10 -64 59 -156 102 -194
21 -18 53 -51 69 -72 17 -20 43 -54 59 -74 16 -19 27 -38 24 -41 -8 -7 -118
36 -151 58 -15 11 -43 43 -61 71 -18 29 -46 63 -61 77 -50 47 -58 73 -59 220
0 123 2 139 23 180 33 63 115 173 157 209 31 28 74 42 74 24z m370 -24 c19
-13 43 -28 54 -34 10 -5 25 -19 33 -31 12 -18 10 -25 -12 -58 -22 -33 -25 -46
-23 -124 1 -48 -4 -111 -11 -140 -15 -59 -33 -72 -101 -72 -33 0 -40 4 -44 23
-2 12 -9 51 -16 86 -17 95 -64 181 -98 181 -13 0 -14 -14 -9 -87 4 -49 9 -104
12 -123 21 -127 -109 -22 -137 111 -25 122 54 249 182 290 48 16 134 5 170
-22z m695 -3 c14 -10 17 -21 12 -50 -9 -55 -95 -222 -129 -251 -27 -23 -33
-24 -52 -12 -11 8 -34 17 -51 21 -16 4 -41 14 -54 23 -22 14 -23 20 -17 70 8
67 42 150 67 163 10 6 35 10 56 11 21 0 61 9 88 19 62 23 58 23 80 6z m4625
-15 c0 -16 -7 -45 -15 -65 -9 -20 -25 -76 -36 -124 -24 -100 -28 -109 -40 -91
-21 34 0 160 43 262 23 53 48 63 48 18z m-3861 -54 c13 -26 21 -50 18 -53 -8
-8 -76 45 -88 68 -13 24 -2 40 24 36 15 -2 30 -19 46 -51z m-1099 18 c0 -9 -9
-33 -20 -55 -11 -22 -20 -46 -20 -55 0 -10 -7 -15 -17 -13 -30 5 -29 63 2 104
27 35 55 45 55 19z m4799 -77 c-34 -86 -50 -108 -75 -102 -12 3 -25 1 -29 -5
-9 -16 -7 -144 3 -208 7 -43 6 -58 -8 -80 -21 -33 -118 -129 -124 -122 -2 2
12 42 32 89 44 106 55 230 28 325 -19 63 -16 85 12 85 10 0 42 15 72 34 30 19
67 34 82 35 l28 1 -21 -52z m-1541 -151 c4 -52 -24 -132 -55 -157 -29 -23 -83
-35 -118 -26 -37 9 -41 45 -12 113 14 32 28 66 31 75 6 21 58 37 111 35 39 -2
40 -3 43 -40z m-3448 -42 c0 -14 -4 -25 -10 -25 -5 0 -10 11 -10 25 0 14 5 25
10 25 6 0 10 -11 10 -25z m4262 -45 c2 -17 -2 -25 -12 -25 -17 0 -25 28 -16
52 9 21 25 5 28 -27z m-3547 -22 c55 -38 66 -56 94 -160 25 -90 27 -226 7
-333 -14 -68 -15 -72 -89 -141 -117 -110 -157 -122 -277 -81 -51 17 -66 27
-68 44 -5 36 36 50 88 29 57 -23 107 -19 160 13 57 34 81 82 88 171 5 80 -12
125 -80 204 -40 47 -43 48 -86 42 -24 -3 -64 -15 -89 -26 -71 -31 -73 -30 -72
52 1 61 5 77 25 101 13 16 24 32 24 37 0 17 87 60 121 61 19 0 43 4 54 9 34
15 51 11 100 -22z m1873 20 c-3 -7 -13 -15 -24 -17 -16 -3 -17 -1 -5 13 16 19
34 21 29 4z m423 -67 c-12 -22 -45 -66 -75 -98 -54 -58 -55 -58 -83 -43 -57
32 -67 104 -17 136 20 14 30 15 49 6 14 -7 25 -18 25 -27 0 -31 29 -13 71 43
48 63 66 54 30 -17z m1699 47 c0 -13 -11 -63 -24 -113 -23 -85 -28 -93 -80
-142 -91 -85 -250 -152 -363 -153 -80 0 -56 37 42 65 89 25 142 56 231 134 75
65 92 89 108 147 7 22 63 84 77 84 5 0 9 -10 9 -22z m-4710 -3 c0 -29 -28 -82
-51 -98 -12 -9 -24 -15 -26 -13 -6 5 61 126 70 126 4 0 7 -7 7 -15z m2500 -20
c0 -8 -7 -15 -15 -15 -16 0 -20 12 -8 23 11 12 23 8 23 -8z m1045 -75 c3 -5 2
-10 -4 -10 -5 0 -13 5 -16 10 -3 6 -2 10 4 10 5 0 13 -4 16 -10z m-20 -99 c53
-24 90 -68 134 -161 35 -72 36 -79 36 -185 0 -91 -4 -118 -22 -157 -21 -45
-53 -73 -76 -65 -7 2 -12 33 -13 83 -3 151 -86 298 -211 370 -23 14 -43 30
-43 34 0 5 15 17 33 29 18 11 43 31 56 45 29 31 52 32 106 7z m1359 -88 c15
-95 4 -148 -33 -161 l-28 -10 -2 -378 c-1 -209 -5 -395 -9 -415 -6 -31 -39
-66 -216 -233 -115 -108 -225 -205 -244 -214 -33 -16 -37 -22 -52 -92 -10 -41
-25 -100 -35 -131 l-18 -56 27 -46 c23 -39 29 -64 36 -164 12 -145 33 -267 50
-288 25 -30 70 -11 70 30 0 12 -9 47 -20 79 -21 63 -25 92 -41 348 l-12 178
28 54 c20 40 67 94 164 189 178 174 349 327 366 327 17 0 33 -48 49 -143 13
-82 8 -257 -19 -682 -9 -148 -14 -288 -11 -310 4 -22 13 -86 21 -142 8 -56 34
-180 58 -275 79 -308 89 -365 117 -672 11 -121 25 -237 31 -258 15 -57 34 -43
36 28 6 129 23 183 37 114 7 -37 23 -38 38 -2 27 66 18 497 -12 576 -4 12 -13
80 -20 151 -6 72 -20 185 -31 252 -24 157 -24 183 -1 183 48 0 162 -101 201
-178 27 -53 45 -67 61 -47 30 36 -58 153 -215 285 l-77 65 6 353 c3 194 11
399 16 455 10 98 31 249 35 255 3 4 154 -152 172 -178 14 -20 13 -38 -6 -179
-48 -351 -9 -615 96 -653 37 -14 38 -16 53 -136 10 -85 26 -131 40 -116 5 5
13 45 19 89 9 67 15 83 36 100 l25 19 -36 37 -35 36 12 224 c6 123 12 237 13
254 1 20 -4 30 -16 33 -29 6 -41 -64 -58 -346 -4 -79 -11 -146 -14 -149 -13
-14 -58 45 -74 97 -23 75 -25 483 -2 545 27 72 40 65 252 -127 109 -100 138
-116 138 -76 0 21 -44 68 -217 231 -120 113 -122 116 -109 176 14 71 -5 245
-32 280 -24 33 -56 34 -60 3 -2 -12 4 -52 13 -87 17 -69 35 -197 29 -204 -3
-3 -27 17 -55 45 -59 57 -88 112 -89 169 -1 52 -50 196 -72 209 -14 8 -22 6
-38 -10 l-21 -20 20 -45 c21 -44 28 -109 13 -109 -18 0 -132 194 -132 225 0
19 24 19 171 0 80 -11 122 -21 141 -35 22 -16 31 -18 58 -9 34 12 102 5 139
-15 13 -7 33 -33 45 -57 25 -52 51 -61 67 -25 7 14 20 26 30 26 10 0 59 -18
109 -40 50 -22 110 -45 134 -51 43 -11 86 -40 86 -59 0 -6 9 -10 20 -10 31 0
57 -38 68 -98 9 -52 48 -150 146 -367 34 -76 36 -85 36 -191 0 -131 -14 -287
-36 -399 -17 -89 -66 -223 -93 -256 l-17 -22 -42 27 c-24 15 -58 50 -77 81
-20 30 -44 59 -55 65 -25 13 -62 -5 -109 -53 l-33 -35 13 -174 c19 -269 21
-354 9 -447 -23 -180 -53 -235 -283 -521 -120 -148 -200 -265 -224 -323 -41
-102 -100 -208 -155 -281 -71 -93 -82 -99 -114 -61 -136 161 -200 225 -238
238 -47 16 -44 7 -99 241 -21 87 -48 173 -65 205 -16 31 -57 110 -91 176 -61
120 -117 191 -158 201 -28 7 -58 -9 -110 -59 l-43 -41 0 -201 c0 -110 -4 -206
-9 -214 -16 -25 -38 -4 -65 66 -15 37 -47 102 -70 143 -87 152 -114 206 -126
250 -14 55 -121 258 -167 319 -18 24 -33 49 -33 56 0 6 -23 38 -51 71 -29 32
-58 73 -65 91 -8 17 -21 94 -30 170 -9 76 -18 141 -21 146 -12 20 -22 -11 -32
-105 -15 -131 -21 -158 -31 -158 -35 0 5 372 59 534 21 65 51 105 62 84 3 -7
17 -62 29 -123 23 -115 125 -446 155 -505 10 -19 28 -47 41 -62 27 -33 41 -93
58 -250 7 -65 19 -125 26 -133 17 -20 37 -19 42 3 8 31 -11 230 -32 336 -21
104 -40 146 -65 146 -20 0 -50 51 -76 129 l-22 64 23 17 c17 13 25 32 31 75 4
31 10 59 13 62 3 3 22 -7 42 -23 20 -16 55 -42 78 -57 59 -41 119 -101 188
-187 33 -41 79 -91 101 -112 40 -36 40 -37 45 -120 5 -89 14 -118 37 -118 12
0 15 16 15 76 0 42 7 104 16 138 25 96 137 337 198 424 57 80 104 158 152 247
15 28 40 67 57 88 22 29 27 41 18 50 -8 8 -24 -1 -61 -38 -41 -40 -53 -47 -60
-35 -11 18 -27 120 -36 226 -7 90 -20 127 -48 132 -18 4 -19 -3 -13 -175 4
-124 11 -200 23 -247 18 -65 18 -67 -1 -103 -11 -20 -32 -49 -48 -66 -27 -29
-28 -29 -47 -12 -32 29 -39 76 -51 309 -11 226 -20 279 -42 257 -30 -30 -15
-560 17 -620 42 -75 41 -69 16 -119 -13 -26 -47 -100 -75 -165 -29 -65 -56
-117 -61 -116 -5 2 -34 37 -65 78 -31 42 -89 108 -128 147 l-71 72 0 109 c0
60 -5 146 -10 192 -13 98 0 242 26 297 9 19 42 55 73 79 111 87 125 101 193
192 38 50 81 99 94 108 22 14 24 21 19 58 -3 23 -10 131 -14 240 -9 198 -15
227 -48 227 -13 0 -15 -14 -11 -86 2 -47 1 -87 -2 -89 -7 -4 -110 175 -110
192 0 17 114 119 157 141 34 18 44 30 57 70 16 49 26 64 154 240 64 90 104
132 123 132 3 0 9 -17 13 -37z m-4304 -74 c12 -29 24 -66 27 -84 4 -27 2 -34
-15 -40 -40 -12 -95 37 -95 84 0 28 36 91 52 91 5 0 18 -23 31 -51z m4110 17
c0 -23 -97 -166 -112 -166 -12 0 -10 53 3 89 9 25 88 101 105 101 2 0 4 -11 4
-24z m-6001 -52 c11 -14 37 -69 57 -122 52 -136 76 -181 129 -243 55 -64 153
-134 200 -143 21 -4 35 -13 35 -21 0 -20 -40 -45 -83 -52 -27 -4 -37 -1 -49
15 -7 11 -30 23 -51 27 -45 9 -140 64 -187 111 -98 94 -160 340 -110 434 14
27 34 25 59 -6z m4662 -36 c48 -66 131 -242 136 -290 3 -29 0 -50 -10 -63 -21
-27 -28 -17 -36 52 -4 32 -10 64 -15 71 -9 15 -71 47 -108 56 -49 11 -71 133
-36 199 14 28 36 20 69 -25z m-3216 -24 c7 -21 20 -56 29 -76 9 -21 12 -38 6
-38 -16 0 -70 103 -70 133 0 40 21 29 35 -19z m-139 5 c12 -20 -20 -37 -130
-68 -120 -34 -126 -35 -126 -22 0 5 23 17 52 27 28 9 79 29 112 45 68 31 82
34 92 18z m1603 -18 c66 -37 187 -144 194 -173 9 -33 -9 -28 -54 15 -51 48
-79 63 -206 112 -104 39 -168 45 -249 20 -27 -8 -58 -15 -69 -15 l-20 1 20 15
c50 39 77 44 220 41 93 -2 148 -7 164 -16z m2894 -40 c12 -71 2 -114 -35 -156
-52 -60 -58 -51 -58 91 l0 125 42 -3 43 -3 8 -54z m-194 24 c16 -15 37 -182
27 -219 -8 -32 -18 -32 -50 -3 -22 19 -26 34 -35 126 -5 58 -8 108 -5 113 7
11 44 0 63 -17z m-283 -62 c-9 -51 -38 -73 -92 -73 -25 0 -44 5 -44 11 0 36
75 99 118 99 22 0 24 -3 18 -37z m-3955 -74 c85 -87 99 -140 76 -285 -20 -124
-48 -184 -114 -244 l-55 -50 -89 0 c-49 0 -89 4 -89 8 0 22 40 44 76 40 24 -2
39 2 42 10 2 7 -9 48 -24 91 -15 43 -25 85 -21 94 3 9 22 19 41 22 40 8 81 47
73 69 -10 27 -113 21 -173 -9 -63 -32 -77 -21 -76 59 1 156 87 243 240 245 39
1 48 -4 93 -50z m1519 10 c81 -40 118 -111 127 -241 6 -86 2 -91 -47 -62 -39
23 -63 13 -53 -23 4 -16 7 -53 7 -83 1 -63 -28 -122 -87 -178 -43 -41 -60 -38
-105 23 -40 52 -39 81 1 77 46 -5 44 23 -6 96 -25 37 -66 91 -91 120 -53 61
-53 66 -2 172 32 67 58 89 135 116 40 14 68 10 121 -17z m2404 -97 c44 -15 78
-44 66 -55 -11 -11 -224 19 -228 31 -14 42 73 55 162 24z m-4544 -30 c0 -11
-7 -41 -15 -68 -17 -56 -20 -153 -5 -203 11 -40 7 -49 -14 -32 -21 18 -35 97
-37 207 -1 102 4 114 49 114 15 0 22 -6 22 -18z m2405 -84 c3 -24 9 -80 13
-126 l8 -83 -45 -68 c-59 -87 -80 -113 -111 -134 -55 -38 -53 -13 7 83 77 125
95 173 101 278 5 98 17 120 27 50z m2157 2 c55 -16 185 -107 213 -149 13 -20
29 -56 36 -82 11 -42 10 -50 -22 -127 -18 -45 -46 -98 -62 -117 -24 -30 -35
-35 -70 -35 -25 0 -58 10 -82 23 -32 18 -43 31 -53 67 -28 98 -35 117 -64 163
-32 50 -61 70 -116 80 -43 9 -113 -16 -132 -45 -34 -53 -68 -78 -105 -78 -54
0 -56 23 -4 77 24 24 60 53 80 63 20 11 67 53 105 94 l69 75 85 0 c47 1 102
-4 122 -9z m-3538 -20 c20 -7 26 -17 26 -39 0 -16 -4 -33 -10 -36 -5 -3 -10
-25 -10 -48 0 -23 -11 -64 -24 -92 -34 -74 -178 -202 -272 -241 -64 -27 -53 7
17 52 52 33 155 130 179 170 15 24 24 62 31 130 11 122 12 124 63 104z m656
-15 c21 -25 24 -89 6 -124 -20 -38 -38 -32 -29 11 5 26 2 35 -22 54 -26 20
-28 25 -17 48 13 29 43 34 62 11z m3806 -81 c9 -79 -14 -244 -35 -244 -10 0
-23 183 -17 225 3 17 8 48 11 70 6 36 8 38 20 21 8 -10 17 -42 21 -72z m-6023
-56 c9 -5 17 -13 17 -18 0 -11 -62 -13 -97 -4 -25 7 -31 29 -10 37 15 6 66 -3
90 -15z m911 -57 c26 -29 17 -56 -18 -56 -31 0 -74 44 -62 64 11 18 61 13 80
-8z m5324 -104 c26 -52 27 -81 7 -227 -11 -75 -18 -241 -23 -511 l-7 -400 -34
23 c-20 13 -38 36 -43 53 -13 44 -11 317 2 420 7 56 11 209 9 410 -1 176 -1
327 0 335 3 21 61 -46 89 -103z m-5555 -76 c53 -47 94 -87 92 -89 -20 -20
-179 108 -211 171 -15 28 -15 29 3 16 10 -8 62 -52 116 -98z m3789 94 c0 -5
-5 -11 -11 -13 -6 -2 -11 4 -11 13 0 9 5 15 11 13 6 -2 11 -8 11 -13z m346
-88 c3 -39 -7 -47 -28 -22 -15 18 -5 68 13 62 7 -2 13 -20 15 -40z m-653 2 c5
-5 33 -9 63 -9 46 0 58 -4 81 -28 46 -50 83 -129 91 -199 11 -87 -3 -221 -29
-271 -34 -68 -107 -116 -136 -92 -12 10 -15 46 -15 182 0 161 -1 171 -25 219
-28 54 -26 69 9 69 34 0 53 -19 89 -90 24 -45 40 -66 55 -68 66 -10 8 154 -69
193 -15 8 -63 22 -105 30 -80 15 -128 38 -121 58 8 24 87 29 112 6z m-783 -6
c17 -15 27 -15 151 0 180 23 208 22 254 -8 57 -37 72 -54 108 -125 52 -103 83
-230 56 -230 -10 0 -21 24 -21 48 0 71 -48 139 -152 217 -44 33 -69 45 -94 45
-19 0 -34 -2 -34 -4 0 -2 10 -25 22 -52 15 -35 23 -76 26 -144 6 -129 -6 -170
-72 -235 -63 -63 -113 -90 -183 -100 -45 -6 -57 -3 -96 19 -24 14 -51 26 -60
26 -47 0 -97 55 -97 107 0 17 7 18 74 15 86 -5 140 10 162 43 10 15 18 58 21
117 5 83 3 96 -14 118 -18 21 -32 25 -103 31 -45 4 -87 12 -92 17 -14 14 78
112 105 112 11 0 29 -7 39 -17z m-2422 -53 c0 -5 -7 -10 -15 -10 -8 0 -15 5
-15 10 0 6 7 10 15 10 8 0 15 -4 15 -10z m1019 -79 c83 -59 103 -126 78 -258
-9 -43 -18 -94 -22 -115 -6 -42 -65 -134 -102 -162 -28 -21 -97 -33 -107 -18
-3 5 8 40 25 77 50 111 50 233 -1 298 -15 19 -32 27 -63 29 -35 3 -43 7 -45
26 -8 53 16 82 121 144 33 19 69 12 116 -21z m-1464 -67 c48 -19 74 -24 98
-19 17 4 60 9 95 12 69 5 75 -2 42 -44 -11 -14 -20 -32 -20 -39 0 -23 -42 -42
-120 -54 -41 -6 -94 -21 -118 -32 l-43 -20 -37 26 c-21 14 -57 45 -81 70 l-43
44 52 41 c62 49 85 51 175 15z m2345 -18 c0 -21 -28 -46 -45 -40 -20 8 -19 31
3 43 24 15 42 13 42 -3z m-1431 -68 c-50 -97 -89 -144 -89 -105 0 23 58 134
81 156 33 31 37 6 8 -51z m1571 -4 c14 -35 13 -44 -5 -44 -8 0 -21 13 -30 30
-19 37 -19 40 5 40 13 0 24 -10 30 -26z m-445 -14 c3 -5 -7 -17 -22 -27 -15
-9 -45 -30 -66 -46 -20 -16 -44 -26 -52 -23 -22 8 -20 82 3 95 22 13 129 14
137 1z m216 -8 c13 -11 35 -22 49 -25 14 -3 42 -24 64 -46 l38 -39 -52 -41
c-29 -23 -64 -44 -78 -47 -50 -10 -132 -54 -175 -93 l-42 -39 -63 20 c-86 29
-91 42 -52 126 36 77 61 107 110 132 19 10 45 30 57 44 19 21 32 26 72 26 32
0 56 -6 72 -18z m-471 -68 c16 -40 12 -113 -11 -194 -43 -157 -110 -233 -263
-296 -77 -32 -105 -39 -181 -42 -131 -5 -236 25 -310 90 -57 50 -81 93 -64
114 6 8 18 14 26 14 22 0 63 -50 63 -79 0 -52 6 -54 162 -50 l144 4 134 74
c214 117 210 112 241 273 11 55 22 104 25 109 10 16 24 9 34 -17z m-1526 -18
c-8 -20 -50 -40 -70 -32 -21 8 -12 17 29 33 43 15 47 15 41 -1z m961 -57 c6
-28 1 -48 -10 -37 -3 2 -8 19 -11 36 -8 42 12 43 21 1z m2170 -31 c-3 -13 -10
-40 -15 -61 -7 -38 -53 -97 -75 -97 -6 0 -35 -16 -65 -35 -55 -34 -117 -46
-148 -27 -14 10 5 30 48 52 47 24 180 113 180 121 0 11 60 69 72 69 6 0 8 -9
3 -22z m-2090 2 c-3 -5 -13 -10 -21 -10 -8 0 -14 5 -14 10 0 6 9 10 21 10 11
0 17 -4 14 -10z m-405 -20 c0 -26 -27 -80 -40 -80 -16 0 -12 39 7 71 20 34 33
37 33 9z m-382 -89 c17 -32 32 -63 32 -69 0 -6 -37 -28 -82 -51 -120 -58 -231
-161 -197 -181 18 -12 40 -1 76 36 18 19 41 34 52 34 11 0 32 11 48 24 55 45
92 59 125 45 25 -10 34 -9 66 8 23 13 66 23 114 27 l77 7 25 -48 c27 -54 49
-77 98 -101 45 -23 48 -48 6 -60 -18 -6 -81 -31 -140 -56 -59 -25 -111 -46
-117 -46 -14 0 -34 76 -26 100 9 30 33 43 91 51 30 4 62 13 70 19 18 15 18 56
1 63 -23 9 -119 -30 -138 -55 -17 -22 -18 -22 -32 -4 -21 28 -65 16 -152 -43
-40 -27 -100 -61 -132 -76 -32 -15 -87 -53 -123 -84 -75 -66 -205 -156 -257
-178 -60 -25 -108 3 -81 46 6 10 39 34 72 54 72 41 156 121 156 148 0 19 -1
19 -37 0 -21 -11 -58 -36 -82 -57 -52 -45 -163 -114 -173 -107 -5 2 -8 13 -8
23 0 11 -14 35 -30 53 -45 52 -40 75 38 162 25 28 56 74 69 103 17 40 34 59
66 78 168 100 178 105 264 120 47 8 88 12 91 9 16 -16 -35 -58 -170 -140 -18
-11 -34 -30 -36 -43 -4 -28 11 -28 49 -1 16 11 72 38 125 59 68 27 105 48 125
72 35 41 36 48 4 48 -21 0 -25 5 -25 28 0 35 6 42 39 42 22 0 32 -10 59 -59z
m3082 53 c0 -18 -24 -44 -40 -44 -24 0 -25 8 -3 32 15 17 43 25 43 12z m889
-23 c11 -7 11 -19 -2 -72 -9 -35 -19 -106 -23 -157 -4 -51 -10 -95 -15 -98
-16 -9 -24 51 -24 179 0 116 2 130 19 143 23 16 26 17 45 5z m-141 -37 c4 -36
-56 -159 -77 -159 -14 0 -22 19 -35 78 -4 15 -13 27 -21 27 -34 0 -46 -111
-20 -184 8 -22 12 -44 9 -48 -10 -16 -33 12 -49 60 -19 57 -36 78 -98 120 -56
39 -82 75 -72 99 7 16 9 14 14 -7 5 -18 15 -26 36 -28 17 -2 34 -8 40 -13 15
-15 40 -11 68 11 14 11 37 20 51 20 18 0 26 5 26 18 0 31 22 43 75 40 48 -3
50 -4 53 -34z m336 -61 c17 -274 19 -413 6 -413 -19 0 -101 54 -134 89 -27 28
-29 36 -29 108 0 121 14 287 25 301 6 7 34 12 68 12 l57 0 7 -97z m-1175 -32
c10 -6 40 -46 66 -91 57 -93 76 -100 86 -28 8 51 15 68 29 68 18 0 71 -67 106
-134 32 -61 36 -75 31 -120 -12 -111 -91 -294 -177 -408 -27 -38 -53 -68 -58
-68 -4 0 -27 37 -52 83 l-44 83 22 36 c18 29 22 50 22 121 0 188 -82 319 -192
304 -21 -3 -40 -2 -42 1 -7 11 21 82 41 104 45 51 117 72 162 49z m-776 -38
c90 -36 97 -52 98 -206 0 -205 -45 -311 -142 -332 -40 -9 -48 0 -59 67 -5 31
-14 65 -22 77 -10 17 -9 31 5 85 21 79 21 98 1 167 -11 38 -29 67 -60 98 -49
48 -52 57 -26 64 53 14 138 6 205 -20z m-247 -170 c8 -54 -1 -112 -20 -131
-31 -31 -78 12 -94 86 -10 42 -2 58 53 100 27 22 30 22 42 6 7 -9 15 -37 19
-61z m-1897 -60 c23 -83 3 -155 -51 -178 -18 -7 -48 -25 -67 -39 -20 -15 -48
-26 -66 -26 -25 0 -35 -6 -48 -32 -9 -18 -22 -41 -29 -50 -20 -28 -2 -31 40
-8 53 30 81 22 128 -35 l37 -46 -29 -30 c-63 -67 -107 -73 -204 -29 -94 42
-110 24 -22 -27 26 -14 57 -35 69 -46 18 -16 41 -21 102 -25 85 -5 159 4 145
17 -5 5 -26 14 -46 21 -43 13 -48 32 -16 54 32 23 46 20 118 -18 l64 -35 -39
-3 c-33 -3 -40 -7 -46 -31 -8 -30 -128 -164 -166 -185 -13 -7 -23 -17 -23 -22
0 -19 26 -10 51 16 13 14 38 33 54 41 17 9 49 31 73 50 50 41 135 73 193 73
35 0 40 -2 29 -15 -7 -8 -37 -27 -67 -41 -30 -15 -102 -67 -160 -115 -122
-102 -124 -103 -353 -103 -131 -1 -137 0 -200 30 -72 34 -130 78 -130 99 0 8
14 23 30 35 31 22 40 50 16 50 -7 0 -19 -7 -26 -15 -7 -8 -23 -15 -35 -15 -19
0 -29 11 -48 54 -44 96 -44 107 5 158 57 60 126 108 153 108 13 0 46 -16 74
-35 28 -19 56 -35 62 -35 17 0 -18 36 -58 61 -18 11 -33 29 -33 38 0 25 106
124 166 154 27 14 69 43 94 64 25 22 65 49 90 60 25 11 65 37 90 57 25 20 50
36 57 36 7 0 17 -17 22 -37z m1115 7 c26 -27 -89 -63 -142 -44 -39 14 -36 28
10 46 46 18 113 17 132 -2z m-556 -22 c-3 -7 -66 -45 -141 -85 -75 -39 -171
-96 -213 -127 -49 -36 -81 -53 -87 -47 -13 13 -26 88 -20 112 3 11 19 27 35
35 53 27 231 86 293 95 33 6 64 14 70 20 14 14 67 11 63 -3z m2059 -60 c-3 -7
-5 -2 -5 12 0 14 2 19 5 13 2 -7 2 -19 0 -25z m-1827 2 c0 -5 -19 -22 -42 -36
-52 -32 -118 -94 -118 -110 0 -19 -77 -83 -107 -90 -106 -23 -181 -57 -242
-109 -91 -77 -109 -82 -168 -42 -26 18 -49 38 -51 45 -7 21 35 13 51 -10 21
-32 31 -17 28 41 -2 44 1 51 34 80 61 53 109 81 192 111 44 15 111 44 150 65
38 20 92 42 119 50 58 16 154 19 154 5z m422 -40 c36 -11 83 -33 106 -50 36
-25 40 -33 33 -52 -12 -32 -40 -26 -109 22 -54 38 -62 40 -154 46 -110 8 -133
16 -104 39 29 22 150 19 228 -5z m-2057 0 c9 -15 -18 -58 -94 -150 -68 -81
-84 -110 -60 -110 7 0 53 41 104 90 l91 90 24 -25 c13 -14 44 -37 69 -52 25
-14 49 -31 53 -37 9 -14 -17 -47 -111 -143 -84 -85 -97 -109 -58 -115 16 -2
31 -20 54 -68 l32 -65 -23 -30 c-26 -34 -82 -75 -102 -75 -7 0 -19 12 -26 28
-18 38 -94 73 -174 80 -75 6 -86 17 -55 61 12 16 21 33 21 39 0 5 18 30 40 55
65 73 54 123 -39 187 -15 10 -20 21 -16 31 6 16 175 168 225 202 28 20 36 21
45 7z m5929 -55 l54 -55 6 -128 c4 -70 11 -156 17 -192 10 -68 22 -156 39
-300 17 -136 27 -359 20 -435 -8 -89 -17 -58 -25 87 -3 59 -12 125 -20 147 -8
22 -25 100 -39 174 -14 73 -40 182 -57 242 -30 108 -85 475 -75 502 9 23 24
14 80 -42z m-2582 0 c11 -29 13 -47 7 -51 -14 -8 -119 5 -119 16 0 10 77 80
88 80 4 0 15 -20 24 -45z m-1682 -25 c0 -5 -7 -10 -16 -10 -8 0 -12 5 -9 10 3
6 10 10 16 10 5 0 9 -4 9 -10z m-781 -14 c6 -7 14 -34 17 -59 8 -53 -13 -97
-46 -97 -24 0 -120 51 -120 64 0 17 100 106 119 106 10 0 24 -6 30 -14z m1154
-41 c35 -20 75 -52 91 -75 16 -21 47 -53 68 -70 34 -28 38 -36 38 -75 0 -48
-12 -56 -49 -33 -26 16 -48 5 -72 -37 -12 -19 -32 -38 -45 -41 -38 -10 -72
-78 -85 -170 -17 -122 -16 -121 -49 -133 -38 -13 -57 -6 -74 28 -31 61 -56
255 -56 438 0 123 12 152 75 183 56 28 88 25 158 -15z m503 -125 c62 -31 164
-123 164 -148 0 -22 -64 -8 -119 25 -45 28 -111 111 -111 139 0 18 -2 19 66
-16z m718 14 c23 -9 20 -19 -9 -32 -21 -10 -27 -9 -32 4 -3 9 0 20 8 25 17 11
14 10 33 3z m-1888 -136 c-11 -185 -11 -185 -67 -219 -26 -17 -57 -45 -68 -62
-11 -18 -60 -66 -110 -107 -130 -109 -150 -156 -44 -105 42 20 87 58 167 138
l109 111 18 -23 c11 -13 19 -30 19 -38 0 -43 -78 -122 -273 -277 -102 -81
-133 -116 -123 -141 9 -25 30 -17 91 36 32 27 69 57 84 66 14 9 48 37 75 62
42 39 47 41 31 16 -43 -71 -169 -232 -309 -398 -83 -98 -157 -191 -165 -208
-8 -16 -18 -29 -23 -29 -12 0 -10 6 12 50 11 22 20 46 20 55 0 9 11 40 25 70
50 106 140 452 155 598 9 96 25 115 147 183 83 47 159 116 148 134 -4 6 -28
10 -56 10 -56 0 -63 13 -18 38 70 39 69 41 -13 39 -45 -1 -78 2 -79 8 -2 11
97 71 151 91 19 7 50 13 69 14 l33 0 -6 -112z m2084 86 c0 -14 -106 -158 -127
-171 -24 -16 -97 -10 -109 9 -7 11 99 118 148 148 30 18 88 28 88 14z m-726
-326 c-5 -7 -20 -30 -34 -50 -15 -20 -37 -64 -49 -97 -22 -61 -51 -83 -51 -38
0 54 92 197 127 197 9 0 11 -5 7 -12z m-2531 -74 c19 -22 56 -42 136 -73 61
-23 113 -46 116 -51 3 -5 -7 -16 -22 -23 -51 -26 -275 -95 -463 -142 -102 -25
-189 -50 -193 -54 -5 -5 1 -26 12 -47 12 -21 21 -47 21 -56 0 -27 11 -22 60
28 25 25 59 54 75 64 37 23 229 87 298 100 29 6 68 16 87 24 180 70 267 102
363 133 12 4 17 0 16 -13 0 -11 -36 -48 -86 -89 -178 -145 -349 -327 -520
-555 -88 -118 -193 -251 -232 -296 -80 -91 -256 -251 -336 -305 -29 -20 -59
-41 -66 -48 -8 -6 -22 -17 -32 -24 -24 -17 -12 -47 19 -47 53 0 120 43 299
193 72 60 144 127 161 151 17 23 56 64 86 91 30 28 67 71 81 97 15 26 38 53
50 59 12 7 59 48 104 92 46 44 85 78 89 75 3 -3 -6 -63 -21 -133 -27 -133 -31
-265 -8 -272 19 -7 31 27 48 133 21 134 30 158 81 215 24 27 44 52 44 55 0 3
-13 3 -30 -1 -28 -6 -30 -5 -30 22 0 96 68 204 254 403 59 63 129 138 155 167
50 54 97 76 111 52 11 -17 1 -129 -17 -194 -7 -27 -26 -100 -43 -160 -16 -61
-40 -140 -53 -175 -73 -194 -143 -354 -186 -425 -59 -96 -97 -173 -89 -180 19
-20 88 67 165 210 39 71 65 89 71 48 2 -13 7 -23 10 -23 4 0 34 46 67 103 33
56 78 122 100 147 83 91 251 296 264 322 20 39 164 179 206 200 41 22 125 35
125 21 0 -6 -32 -39 -72 -74 -266 -236 -421 -399 -380 -399 21 0 106 67 129
102 14 21 31 38 37 38 6 0 40 25 75 56 61 53 175 140 234 179 24 15 33 16 67
6 22 -6 40 -16 40 -21 0 -17 -65 -58 -102 -65 -21 -4 -58 -21 -83 -37 -56 -37
-347 -339 -380 -394 -13 -23 -61 -68 -112 -107 -239 -181 -278 -214 -281 -235
-5 -30 31 -29 62 1 13 13 45 36 72 52 27 16 69 47 94 70 25 22 71 60 103 83
31 24 63 52 70 63 6 11 48 41 91 67 45 27 114 81 160 127 45 44 110 103 146
130 55 43 67 57 76 95 9 40 14 45 45 52 19 3 38 3 42 -1 12 -12 -75 -174 -140
-261 -155 -207 -269 -318 -453 -440 -52 -34 -151 -106 -220 -160 -190 -148
-186 -146 -282 -154 -126 -10 -195 -34 -290 -99 -68 -47 -88 -41 -88 25 0 47
-24 98 -48 99 -58 4 -156 -42 -319 -149 -65 -43 -140 -91 -168 -106 -27 -16
-86 -52 -130 -81 -80 -53 -181 -95 -230 -95 l-25 0 0 158 c0 86 5 186 10 222
5 36 17 137 25 225 21 207 28 233 62 237 19 2 37 18 61 53 60 85 185 217 240
253 30 18 80 60 113 93 58 58 73 89 45 89 -28 0 -171 -123 -323 -276 -83 -85
-154 -154 -157 -154 -3 0 -6 15 -6 34 0 19 -8 42 -17 51 -17 17 -24 17 -156
-2 -46 -6 -48 6 -10 84 18 36 51 77 95 117 37 34 80 85 96 114 20 36 46 64 88
93 32 23 97 74 144 114 47 39 95 77 106 83 12 6 46 32 75 58 66 56 146 104
176 104 12 0 39 15 59 33 41 36 133 77 150 68 6 -3 23 -20 37 -37z m3041 31
c65 -31 92 -124 64 -216 -15 -51 -31 -64 -103 -84 -70 -19 -79 -20 -120 -10
-23 5 -37 1 -58 -15 -24 -19 -27 -28 -27 -77 0 -39 -4 -54 -12 -51 -19 6 -21
75 -5 117 8 20 20 75 27 124 11 82 15 90 57 138 44 48 103 88 131 89 8 0 29
-7 46 -15z m275 -39 c8 -10 9 -16 1 -21 -13 -8 -30 3 -30 21 0 18 14 18 29 0z
m776 -17 c52 -27 102 -75 126 -121 21 -41 23 -48 11 -48 -5 0 -19 18 -31 40
-22 40 -73 80 -119 94 -13 5 -44 17 -69 28 -34 15 -42 22 -32 29 18 12 64 3
114 -22z m-545 1 c0 -5 -4 -10 -10 -10 -5 0 -10 5 -10 10 0 6 5 10 10 10 6 0
10 -4 10 -10z m414 -71 c74 -20 163 -133 183 -229 7 -36 -18 -70 -52 -70 -12
0 -42 -9 -66 -19 -27 -12 -90 -24 -159 -31 -63 -7 -130 -16 -149 -20 l-34 -9
6 127 c3 70 11 139 17 153 19 42 133 104 200 108 8 0 32 -4 54 -10z m-1484
-189 c0 -32 -4 -61 -9 -64 -10 -6 -31 37 -31 64 0 27 21 70 31 64 5 -3 9 -32
9 -64z m-855 -104 c-15 -19 -42 -47 -62 -62 -30 -23 -34 -24 -24 -6 6 12 15
23 20 26 5 3 12 22 15 41 6 32 10 35 42 35 l35 0 -26 -34z m145 19 c0 -8 -9
-24 -20 -35 -11 -11 -27 -20 -35 -20 -21 0 -19 26 5 50 24 24 50 26 50 5z
m-111 -117 c-7 -12 -29 -44 -50 -71 -38 -47 -79 -154 -79 -203 0 -17 -15 -39
-47 -67 -25 -23 -80 -74 -122 -113 -42 -39 -137 -124 -211 -189 -320 -282
-407 -372 -383 -396 5 -5 50 25 114 79 58 48 144 119 191 157 68 55 307 264
445 388 12 10 26 16 32 12 22 -13 -20 -63 -175 -210 -152 -145 -305 -311 -358
-389 -56 -84 -7 -50 141 95 85 83 157 149 160 145 13 -13 -49 -115 -82 -135
-43 -25 -70 -74 -56 -100 24 -45 73 -31 97 26 55 130 226 393 280 428 45 29
54 15 54 -84 l0 -89 -152 -142 c-224 -209 -233 -220 -183 -220 26 0 68 32 254
192 62 54 117 98 121 98 13 0 50 -51 50 -68 0 -26 -47 -78 -183 -204 -126
-116 -139 -124 -279 -193 -138 -68 -245 -105 -302 -105 -30 0 -44 19 -120 165
-65 124 -130 206 -193 244 -23 14 -43 29 -43 33 0 15 137 121 220 170 218 129
404 286 490 413 18 28 46 61 62 75 95 82 226 207 272 260 39 44 59 43 35 -2z
m1057 -33 c18 -14 39 -25 46 -25 8 0 32 -13 54 -30 59 -42 90 -53 108 -35 8 8
33 15 56 15 52 0 92 21 127 66 l28 37 22 -49 c31 -70 29 -91 -14 -130 -75 -69
-167 -94 -280 -75 -77 13 -136 43 -166 83 -20 27 -38 168 -22 168 5 0 23 -11
41 -25z m-468 -5 c62 -38 142 -192 142 -274 0 -56 -22 -83 -116 -147 -75 -50
-111 -90 -99 -109 3 -5 23 -19 42 -29 l37 -18 -50 -36 c-62 -46 -97 -54 -130
-32 -27 18 -59 79 -49 95 3 5 1 27 -4 47 -10 35 -8 40 21 70 l31 32 -17 59
c-20 73 -23 279 -3 305 11 17 113 55 147 56 8 1 30 -8 48 -19z m1997 -80 c-3
-5 -10 -10 -16 -10 -5 0 -9 5 -9 10 0 6 7 10 16 10 8 0 12 -4 9 -10z m-717
-62 c19 -19 14 -38 -11 -38 -31 0 -38 9 -26 31 11 22 20 24 37 7z m172 -63
c16 -20 4 -35 -30 -35 -27 0 -46 22 -34 41 8 14 50 11 64 -6z m-850 -107 c0
-12 -12 -51 -27 -87 -25 -60 -27 -77 -28 -196 0 -77 6 -153 14 -185 41 -167
83 -175 444 -88 51 12 58 35 21 64 -25 20 -29 30 -27 68 1 24 11 74 22 111 12
38 20 69 19 70 -18 15 -52 12 -93 -10 -26 -14 -54 -24 -61 -21 -17 7 -34 70
-34 128 0 38 5 50 26 67 35 28 114 28 205 1 58 -17 72 -26 85 -52 20 -39 64
-166 64 -186 0 -45 -136 -254 -187 -287 -22 -15 -24 -20 -18 -70 l7 -53 -98
-4 c-85 -4 -102 -2 -120 14 -12 11 -36 18 -60 18 -70 0 -163 74 -216 172 -78
145 -82 158 -83 253 0 83 3 95 34 158 36 70 86 137 102 137 5 0 9 -10 9 -22z
m-1009 -139 c17 -27 29 -52 26 -55 -5 -6 -87 109 -87 122 0 14 30 -19 61 -67z
m-115 -60 c3 -6 1 -16 -5 -22 -9 -9 -14 -8 -21 3 -9 15 -4 30 10 30 5 0 12 -5
16 -11z m206 -77 c6 -6 14 -32 19 -58 5 -26 18 -57 29 -69 45 -48 11 -47 -81
1 -101 53 -139 112 -86 134 27 12 105 6 119 -8z m-117 -323 c-5 -33 -15 -60
-29 -74 -21 -21 -192 -82 -202 -72 -8 8 136 128 147 122 5 -4 9 -15 9 -25 0
-10 5 -22 11 -26 18 -11 40 21 46 67 6 54 12 74 19 66 3 -3 3 -29 -1 -58z
m1813 -182 c40 -40 55 -77 32 -77 -17 0 -100 92 -100 110 0 21 28 8 68 -33z
m-709 -83 c24 -31 19 -47 -38 -119 -68 -86 -143 -135 -203 -135 -61 1 -211 40
-250 65 -41 27 -81 94 -76 128 5 38 37 32 79 -14 36 -39 44 -43 97 -47 93 -6
147 29 87 56 -20 9 -25 19 -25 47 0 36 28 75 54 75 8 0 20 2 28 5 22 8 41 -11
47 -51 11 -66 25 -58 84 46 l17 32 40 -32 c22 -17 48 -43 59 -56z m559 17 c12
-7 12 -19 2 -66 -9 -46 -20 -66 -53 -99 -23 -23 -56 -47 -74 -55 -31 -13 -33
-12 -71 28 -23 24 -52 43 -71 47 -78 16 -36 69 87 113 121 42 155 48 180 32z
m-1061 -389 c9 -22 -33 -52 -74 -52 -32 0 -34 2 -31 27 4 32 37 52 74 45 14
-2 28 -12 31 -20z m1018 -111 c0 -34 -168 -87 -247 -78 -95 12 -85 39 14 43
43 2 81 11 118 28 59 27 115 31 115 7z m-270 -162 c0 -9 -9 -13 -25 -11 -29 3
-45 16 -36 30 9 15 61 -2 61 -19z m-200 -38 c22 -11 48 -22 58 -25 28 -8 20
-33 -25 -83 -65 -70 -115 -103 -158 -103 -35 0 -42 6 -99 78 -34 42 -60 84
-59 92 2 11 22 16 78 20 65 4 75 8 79 25 2 11 8 23 13 26 13 8 60 -5 113 -30z
m-277 -243 c-3 -7 -15 -14 -29 -16 -23 -2 -23 -2 -5 13 24 18 39 20 34 3z"/>
<path d="M8383 7300 c7 -47 98 -259 148 -342 39 -67 64 -84 76 -53 7 20 -170
370 -204 405 l-25 25 5 -35z"/>
<path d="M8600 7118 c0 -13 9 -39 20 -58 11 -19 39 -73 61 -120 43 -90 64
-120 85 -120 46 0 10 96 -89 239 -56 81 -77 97 -77 59z"/>
<path d="M7324 6876 c-7 -19 2 -174 12 -200 3 -9 10 -16 15 -16 17 0 21 52 11
132 -10 83 -26 116 -38 84z"/>
<path d="M7770 6553 c-18 -60 -25 -326 -10 -363 7 -17 16 -27 21 -23 13 13 24
423 11 423 -6 0 -16 -17 -22 -37z"/>
<path d="M8757 6543 c-16 -15 -5 -43 34 -87 40 -46 76 -72 85 -63 11 10 -29
84 -64 120 -37 38 -44 42 -55 30z"/>
<path d="M8072 6483 c9 -76 98 -490 113 -526 8 -20 20 -37 25 -37 32 0 -38
440 -85 535 -33 68 -59 81 -53 28z"/>
<path d="M7957 6423 c-13 -12 -7 -111 14 -255 36 -255 55 -318 95 -318 9 0 8
17 -7 68 -12 39 -28 152 -39 269 -21 219 -33 266 -63 236z"/>
<path d="M8560 6348 c0 -40 9 -114 20 -164 26 -127 125 -374 149 -374 20 0 16
29 -17 125 -19 55 -55 185 -81 289 -26 105 -53 192 -59 194 -9 3 -12 -18 -12
-70z"/>
<path d="M8984 6397 c-3 -9 14 -62 39 -119 24 -57 47 -115 51 -130 8 -36 30
-36 46 1 16 39 5 71 -59 176 -50 82 -67 98 -77 72z"/>
<path d="M9143 6273 c6 -60 77 -265 104 -301 28 -38 58 -36 57 3 -2 32 -111
303 -133 329 -24 28 -33 18 -28 -31z"/>
<path d="M8533 6034 c7 -44 39 -108 52 -105 16 3 6 61 -17 103 -27 48 -42 49
-35 2z"/>
<path d="M7481 5992 c-28 -52 -64 -383 -54 -488 8 -81 33 -110 52 -61 7 18 39
395 45 532 1 35 -27 47 -43 17z"/>
<path d="M8120 5737 c0 -99 98 -397 130 -397 20 0 9 53 -46 222 -57 174 -84
231 -84 175z"/>
<path d="M7635 5681 c-14 -23 -23 -190 -16 -280 8 -97 24 -130 56 -117 15 5
16 15 10 59 -3 28 -10 114 -15 190 -7 130 -18 175 -35 148z"/>
<path d="M8690 5551 c0 -73 39 -239 82 -348 22 -57 44 -103 49 -103 19 0 7 83
-31 220 -22 78 -46 152 -52 164 -6 11 -13 34 -15 50 -2 17 -10 37 -18 45 -13
14 -15 10 -15 -28z"/>
<path d="M8010 5483 c0 -63 54 -223 76 -223 19 0 18 17 -5 92 -11 35 -24 81
-30 103 -6 22 -17 49 -25 60 -14 19 -15 16 -16 -32z"/>
<path d="M7782 5348 c-15 -15 -16 -149 -1 -200 21 -78 49 -32 49 81 0 109 -17
150 -48 119z"/>
<path d="M8330 5333 c0 -4 18 -43 39 -85 59 -119 145 -218 168 -194 10 10 -15
56 -73 136 -30 41 -65 91 -77 110 -21 32 -57 53 -57 33z"/>
<path d="M6668 5105 c-3 -14 0 -77 7 -139 9 -81 10 -169 4 -303 -11 -257 -12
-241 12 -253 42 -23 46 -4 54 223 5 140 3 243 -4 305 -17 138 -60 237 -73 167z"/>
<path d="M7823 4624 c-8 -22 24 -165 41 -182 12 -12 16 -11 30 11 14 20 15 32
6 72 -16 70 -37 115 -55 115 -9 0 -18 -7 -22 -16z"/>
<path d="M7967 4484 c-10 -10 -8 -96 2 -113 18 -28 33 0 26 48 -8 52 -18 75
-28 65z"/>
<path d="M7587 4393 c-10 -10 -8 -73 4 -116 10 -38 11 -38 30 -21 23 21 24 59
4 108 -15 35 -25 43 -38 29z"/>
<path d="M6866 4171 c-15 -24 -19 -156 -6 -181 l13 -24 18 23 c26 32 27 139 1
172 -13 16 -21 19 -26 10z"/>
<path d="M7309 4094 c-9 -20 -14 -125 -17 -336 -3 -258 -1 -315 12 -361 17
-59 49 -107 72 -107 19 0 18 28 -8 113 -19 66 -22 100 -25 387 -3 173 -8 319
-13 324 -6 6 -14 -3 -21 -20z"/>
<path d="M6800 3421 c0 -97 18 -221 37 -250 28 -44 33 -2 18 155 -8 82 -15
152 -15 157 0 4 -9 7 -20 7 -18 0 -20 -7 -20 -69z"/>
<path d="M7687 3324 c-14 -14 -8 -181 7 -193 10 -9 16 -7 27 5 20 24 -13 209
-34 188z"/>
<path d="M6134 3157 c3 -18 15 -127 26 -242 11 -115 25 -214 30 -219 18 -18
25 29 24 169 -2 189 -32 325 -70 325 -13 0 -15 -7 -10 -33z"/>
<path d="M6756 3132 c-4 -6 -11 -51 -17 -99 -5 -48 -14 -125 -19 -169 -10 -80
-7 -114 12 -114 5 0 16 17 25 37 30 73 29 394 -1 345z"/>
<path d="M6549 2948 c-5 -225 9 -342 28 -252 10 47 9 244 -1 297 -12 63 -26
41 -27 -45z"/>
<path d="M7415 2969 c-4 -6 -2 -38 4 -72 7 -34 16 -132 22 -217 5 -85 10 -164
11 -175 1 -11 -2 -32 -6 -47 -11 -37 11 -38 25 -1 5 15 15 88 21 163 16 207
-8 360 -57 360 -7 0 -17 -5 -20 -11z"/>
<path d="M6347 2883 c-4 -3 -7 -26 -7 -50 0 -32 4 -43 15 -43 11 0 15 12 15
50 0 46 -7 60 -23 43z"/>
<path d="M7606 2681 c-9 -15 -12 -288 -3 -297 4 -4 13 -2 20 5 15 15 16 276 0
292 -7 7 -13 7 -17 0z"/>
<path d="M6756 2403 c-7 -23 2 -53 15 -53 11 0 11 41 0 59 -7 11 -10 10 -15
-6z"/>
<path d="M7180 1824 c-16 -40 -25 -174 -13 -174 19 0 44 50 50 100 10 83 -15
133 -37 74z"/>
<path d="M1502 3721 c4 -13 18 -16 19 -4 0 4 -5 9 -11 12 -7 2 -11 -2 -8 -8z"/>
<path d="M1422 3656 c-20 -19 -34 -38 -30 -41 10 -10 98 47 98 63 0 22 -30 13
-68 -22z"/>
<path d="M1608 3589 c-25 -14 -22 -31 4 -27 13 2 24 11 26 21 4 19 -5 21 -30
6z"/>
<path d="M1666 2890 c-37 -24 -64 -70 -42 -70 8 0 18 5 21 11 4 5 18 14 31 19
17 7 24 17 24 35 0 30 2 30 -34 5z"/>
<path d="M1395 2393 c-74 -50 -195 -155 -195 -169 0 -21 25 -17 58 11 46 39
123 93 163 114 37 20 54 45 43 62 -9 15 -27 10 -69 -18z"/>
<path d="M1857 2325 c-36 -25 -223 -262 -213 -272 18 -19 69 30 243 236 22 25
31 61 15 61 -4 0 -24 -11 -45 -25z"/>
<path d="M1056 2089 c-99 -94 -162 -166 -153 -175 24 -24 287 213 287 257 0
28 -50 -2 -134 -82z"/>
<path d="M1668 1891 c-136 -138 -174 -193 -107 -154 44 25 289 262 289 279 0
8 -10 14 -22 14 -15 0 -65 -43 -160 -139z"/>
<path d="M802 1818 c-50 -49 -70 -83 -58 -95 8 -8 136 120 136 135 0 24 -28
10 -78 -40z"/>
<path d="M873 1704 c-74 -78 -95 -117 -50 -93 33 18 147 137 147 154 0 29 -24
14 -97 -61z"/>
<path d="M1545 1574 c-81 -54 -121 -103 -97 -118 18 -11 162 111 162 137 0 14
-26 7 -65 -19z"/>
<path d="M720 1540 c-26 -21 -30 -29 -18 -30 10 0 32 13 50 30 44 40 14 40
-32 0z"/>
<path d="M482 1228 c-14 -14 -16 -38 -4 -38 12 0 32 23 32 37 0 16 -12 17 -28
1z"/>
</g>
</svg>
